<mxfile host="app.diagrams.net" modified="2023-10-26T05:13:26.347Z" agent="Mozilla/5.0 (X11; Linux x86_64) AppleWebKit/537.36 (KHTML, like Gecko) Chrome/117.0.0.0 Safari/537.36" etag="LQYdqFa1CehE5FHVy833" version="22.0.8" type="github">
  <diagram name="Page-1" id="6kcJzTpTVba5ZxwaW4OG">
    <mxGraphModel dx="1050" dy="587" grid="1" gridSize="10" guides="1" tooltips="1" connect="1" arrows="1" fold="1" page="1" pageScale="1" pageWidth="827" pageHeight="1169" math="0" shadow="0">
      <root>
        <mxCell id="0" />
        <mxCell id="1" parent="0" />
        <mxCell id="LcuG3ev-rIAa1VGvc-gf-21" style="edgeStyle=orthogonalEdgeStyle;rounded=0;orthogonalLoop=1;jettySize=auto;html=1;exitX=0.5;exitY=1;exitDx=0;exitDy=0;entryX=0.5;entryY=0;entryDx=0;entryDy=0;" edge="1" parent="1" source="LcuG3ev-rIAa1VGvc-gf-2" target="LcuG3ev-rIAa1VGvc-gf-20">
          <mxGeometry relative="1" as="geometry" />
        </mxCell>
        <mxCell id="LcuG3ev-rIAa1VGvc-gf-2" value="Payment Integration Tab" style="rounded=0;whiteSpace=wrap;html=1;" vertex="1" parent="1">
          <mxGeometry x="80" y="200" width="210" height="80" as="geometry" />
        </mxCell>
        <mxCell id="LcuG3ev-rIAa1VGvc-gf-6" style="edgeStyle=orthogonalEdgeStyle;rounded=0;orthogonalLoop=1;jettySize=auto;html=1;entryX=0.543;entryY=-0.018;entryDx=0;entryDy=0;entryPerimeter=0;" edge="1" parent="1" source="LcuG3ev-rIAa1VGvc-gf-5" target="LcuG3ev-rIAa1VGvc-gf-2">
          <mxGeometry relative="1" as="geometry">
            <mxPoint x="190" y="190" as="targetPoint" />
          </mxGeometry>
        </mxCell>
        <mxCell id="LcuG3ev-rIAa1VGvc-gf-5" value="After Refresh External Ref No Create" style="ellipse;whiteSpace=wrap;html=1;" vertex="1" parent="1">
          <mxGeometry x="30" y="20" width="120" height="80" as="geometry" />
        </mxCell>
        <mxCell id="LcuG3ev-rIAa1VGvc-gf-7" value="KBZ Automation Middleware" style="whiteSpace=wrap;html=1;aspect=fixed;" vertex="1" parent="1">
          <mxGeometry x="540" y="150" width="160" height="160" as="geometry" />
        </mxCell>
        <mxCell id="LcuG3ev-rIAa1VGvc-gf-8" style="edgeStyle=orthogonalEdgeStyle;rounded=0;orthogonalLoop=1;jettySize=auto;html=1;exitX=1;exitY=0.5;exitDx=0;exitDy=0;entryX=0.002;entryY=0.564;entryDx=0;entryDy=0;entryPerimeter=0;" edge="1" parent="1" source="LcuG3ev-rIAa1VGvc-gf-2" target="LcuG3ev-rIAa1VGvc-gf-7">
          <mxGeometry relative="1" as="geometry" />
        </mxCell>
        <mxCell id="LcuG3ev-rIAa1VGvc-gf-12" value="Return Response" style="endArrow=classic;html=1;rounded=0;exitX=-0.023;exitY=0.824;exitDx=0;exitDy=0;exitPerimeter=0;entryX=1;entryY=0.75;entryDx=0;entryDy=0;" edge="1" parent="1" source="LcuG3ev-rIAa1VGvc-gf-7" target="LcuG3ev-rIAa1VGvc-gf-2">
          <mxGeometry relative="1" as="geometry">
            <mxPoint x="350" y="290" as="sourcePoint" />
            <mxPoint x="460" y="280" as="targetPoint" />
          </mxGeometry>
        </mxCell>
        <mxCell id="LcuG3ev-rIAa1VGvc-gf-18" style="edgeStyle=orthogonalEdgeStyle;rounded=0;orthogonalLoop=1;jettySize=auto;html=1;entryX=0.75;entryY=0;entryDx=0;entryDy=0;" edge="1" parent="1" source="LcuG3ev-rIAa1VGvc-gf-17" target="LcuG3ev-rIAa1VGvc-gf-2">
          <mxGeometry relative="1" as="geometry" />
        </mxCell>
        <mxCell id="LcuG3ev-rIAa1VGvc-gf-17" value="When click refresh after response, failed status will be soft delete and renew for kbz ref no" style="ellipse;whiteSpace=wrap;html=1;" vertex="1" parent="1">
          <mxGeometry x="190" width="200" height="110" as="geometry" />
        </mxCell>
        <mxCell id="LcuG3ev-rIAa1VGvc-gf-20" value="Generate Unique Ref No" style="swimlane;whiteSpace=wrap;html=1;" vertex="1" parent="1">
          <mxGeometry x="80" y="330" width="200" height="200" as="geometry" />
        </mxCell>
        <mxCell id="LcuG3ev-rIAa1VGvc-gf-22" value="get all external_ref_no with trashed at once&lt;br&gt;&lt;br&gt;generate random string&lt;br&gt;check generated is already existed in list&amp;nbsp;" style="whiteSpace=wrap;html=1;" vertex="1" parent="1">
          <mxGeometry x="50" y="351" width="260" height="180" as="geometry" />
        </mxCell>
      </root>
    </mxGraphModel>
  </diagram>
</mxfile>
